<svg xmlns="http://www.w3.org/2000/svg" version="1.1" xmlns:xlink="http://www.w3.org/1999/xlink" width="512" height="512" x="0" y="0" viewBox="0 0 32 32" style="enable-background:new 0 0 512 512" xml:space="preserve" fill-rule="evenodd" class=""><g><path d="M4.67 27c4.366 0 18.297 0 22.663-.012a2.986 2.986 0 0 0 2.799-1.952l.004-.012C30.695 23.453 31 21.762 31 20c0-8.279-6.721-15-15-15S1 11.721 1 20c0 1.759.304 3.447.849 5.021l.007.019A3 3 0 0 0 4.671 27zm0-2a1 1 0 0 1-.931-.635A13.31 13.31 0 0 1 3 20C3 12.825 8.825 7 16 7s13 5.825 13 13c0 1.524-.263 2.987-.745 4.346a.988.988 0 0 1-.925.642h-.003C22.963 25 9.035 25 4.67 25z" fill="#ffffff" opacity="1" data-original="#000000" class=""></path><path d="M7.18 21.801A9.054 9.054 0 0 1 7 20c0-4.967 4.033-9 9-9 1.279 0 2.497.267 3.599.75a1 1 0 0 0 .802-1.833A10.968 10.968 0 0 0 16 9C9.929 9 5 13.929 5 20c0 .753.076 1.489.221 2.199a1 1 0 0 0 1.959-.398zM24.25 16.401a9.054 9.054 0 0 1 .57 5.4 1 1 0 1 0 1.959.398c.145-.71.221-1.446.221-2.199 0-1.564-.328-3.053-.917-4.401a1 1 0 0 0-1.833.802zM17.293 17.293l5.07-5.07a1 1 0 0 1 1.414 1.414l-5.07 5.07A3.001 3.001 0 1 1 13 20a3.001 3.001 0 0 1 4.293-2.707zM16 19a1 1 0 1 1 0 2 1 1 0 0 1 0-2z" fill="#ffffff" opacity="1" data-original="#000000" class=""></path></g></svg>