<svg width="12" height="12" viewBox="0 0 12 12" fill="none" xmlns="http://www.w3.org/2000/svg">
<path d="M2.66699 12C2.30033 12 1.98644 11.8694 1.72533 11.6083C1.46421 11.3472 1.33366 11.0333 1.33366 10.6667V2C1.14477 2 0.986437 1.93611 0.858659 1.80833C0.730881 1.68056 0.666992 1.52222 0.666992 1.33333C0.666992 1.14444 0.730881 0.986111 0.858659 0.858333C0.986437 0.730556 1.14477 0.666667 1.33366 0.666667H4.00033C4.00033 0.477778 4.06421 0.319444 4.19199 0.191667C4.31977 0.0638889 4.4781 0 4.66699 0H7.33366C7.52255 0 7.68088 0.0638889 7.80866 0.191667C7.93644 0.319444 8.00033 0.477778 8.00033 0.666667H10.667C10.8559 0.666667 11.0142 0.730556 11.142 0.858333C11.2698 0.986111 11.3337 1.14444 11.3337 1.33333C11.3337 1.52222 11.2698 1.68056 11.142 1.80833C11.0142 1.93611 10.8559 2 10.667 2V10.6667C10.667 11.0333 10.5364 11.3472 10.2753 11.6083C10.0142 11.8694 9.70033 12 9.33366 12H2.66699ZM4.66699 9.33333C4.85588 9.33333 5.01421 9.26944 5.14199 9.14167C5.26977 9.01389 5.33366 8.85556 5.33366 8.66667V4C5.33366 3.81111 5.26977 3.65278 5.14199 3.525C5.01421 3.39722 4.85588 3.33333 4.66699 3.33333C4.4781 3.33333 4.31977 3.39722 4.19199 3.525C4.06421 3.65278 4.00033 3.81111 4.00033 4V8.66667C4.00033 8.85556 4.06421 9.01389 4.19199 9.14167C4.31977 9.26944 4.4781 9.33333 4.66699 9.33333ZM7.33366 9.33333C7.52255 9.33333 7.68088 9.26944 7.80866 9.14167C7.93644 9.01389 8.00033 8.85556 8.00033 8.66667V4C8.00033 3.81111 7.93644 3.65278 7.80866 3.525C7.68088 3.39722 7.52255 3.33333 7.33366 3.33333C7.14477 3.33333 6.98644 3.39722 6.85866 3.525C6.73088 3.65278 6.66699 3.81111 6.66699 4V8.66667C6.66699 8.85556 6.73088 9.01389 6.85866 9.14167C6.98644 9.26944 7.14477 9.33333 7.33366 9.33333Z" fill="#020014"/>
</svg>
