<svg width="7" height="4" viewBox="0 0 7 4" fill="none" xmlns="http://www.w3.org/2000/svg">
<path opacity="0.5" d="M3.03083 3.78423L0.140763 0.780585C0.100895 0.73915 0.067467 0.691012 0.0404802 0.63617C0.0134934 0.581328 0 0.522568 0 0.459892C0 0.33452 0.0399673 0.226529 0.119902 0.135918C0.199819 0.045306 0.305167 0 0.435945 0H6.56406C6.69483 0 6.80018 0.0462872 6.8801 0.138862C6.96003 0.231437 7 0.339438 7 0.462865C7 0.493736 6.95294 0.599783 6.85883 0.781007L3.96917 3.78423C3.90272 3.85328 3.83101 3.90651 3.75403 3.94391C3.67706 3.9813 3.59239 4 3.5 4C3.40762 4 3.32294 3.9813 3.24597 3.94391C3.16899 3.90651 3.09728 3.85328 3.03083 3.78423Z" fill="#020014"/>
</svg>
