<svg xmlns="http://www.w3.org/2000/svg" version="1.1" xmlns:xlink="http://www.w3.org/1999/xlink" width="512" height="512" x="0" y="0" viewBox="0 0 512 512" style="enable-background:new 0 0 512 512" xml:space="preserve" class=""><g><path d="M25.676 460.8h25.601v25.598C51.277 500.54 62.738 512 76.875 512h307.203c14.137 0 25.598-11.46 25.598-25.602V76.801c0-14.14-11.461-25.602-25.598-25.602h-25.601V25.602C358.477 11.46 347.016 0 332.875 0H93.945c-.164 0-.316.086-.48.094a8.084 8.084 0 0 0-2.293.46 7.233 7.233 0 0 0-.746.298c-.95.41-1.817.988-2.559 1.707L2.535 87.895a8.434 8.434 0 0 0-1.707 2.5c-.121.261-.187.527-.281.8a8.084 8.084 0 0 0-.438 2.196c0 .187-.109.347-.109.535v341.273a25.595 25.595 0 0 0 7.523 18.13 25.609 25.609 0 0 0 18.153 7.472zM384.078 68.267c4.711 0 8.531 3.82 8.531 8.535v409.597a8.533 8.533 0 0 1-8.53 8.536H76.874a8.533 8.533 0 0 1-8.531-8.536v-25.597h264.531c14.14 0 25.602-11.461 25.602-25.602V68.266zM341.41 25.602v409.597a8.534 8.534 0 0 1-8.535 8.535h-307.2a8.533 8.533 0 0 1-8.53-8.535V102.4h59.73c14.14 0 25.602-11.462 25.602-25.598V17.066h230.398a8.534 8.534 0 0 1 8.535 8.536zm-256 3.53v47.669c0 4.71-3.82 8.531-8.535 8.531H29.211zm0 0" fill="#ffffff" opacity="1" data-original="#000000" class=""></path><g fill-rule="evenodd"><path d="M260.719 167.371a8.53 8.53 0 0 0 13.465 0l39.824-51.2a8.531 8.531 0 0 0-1.606-11.823c-3.66-2.852-8.93-2.25-11.859 1.347l-33.09 42.54-4.644-5.977a8.535 8.535 0 0 0-13.465 10.488zM68.344 136.535h-8.535a8.532 8.532 0 0 0-8.532 8.531 8.533 8.533 0 0 0 8.532 8.536h8.535c4.71 0 8.531-3.82 8.531-8.536 0-4.71-3.82-8.53-8.531-8.53zM102.477 136.535a8.532 8.532 0 0 0-8.532 8.531 8.533 8.533 0 0 0 8.532 8.536h102.398a8.534 8.534 0 1 0 0-17.067zM260.719 244.172a8.53 8.53 0 0 0 13.465 0l39.824-51.2a8.533 8.533 0 1 0-13.465-10.48l-33.09 42.54-4.644-5.973a8.536 8.536 0 0 0-14.64 2.035 8.536 8.536 0 0 0 1.175 8.453zM68.344 213.332h-8.535a8.533 8.533 0 0 0-8.532 8.535c0 4.711 3.82 8.531 8.532 8.531h8.535a8.533 8.533 0 0 0 0-17.066zM204.875 213.332H102.477a8.533 8.533 0 0 0-8.532 8.535c0 4.711 3.82 8.531 8.532 8.531h102.398a8.533 8.533 0 1 0 0-17.066zM260.719 320.973a8.528 8.528 0 0 0 6.734 3.289 8.526 8.526 0 0 0 6.73-3.29l39.825-51.199a8.533 8.533 0 1 0-13.465-10.48l-33.09 42.539-4.644-5.973a8.531 8.531 0 0 0-11.977-1.488c-3.719 2.895-4.383 8.258-1.488 11.977zM68.344 290.133h-8.535a8.533 8.533 0 0 0-8.532 8.535c0 4.71 3.82 8.531 8.532 8.531h8.535c4.71 0 8.531-3.82 8.531-8.531a8.533 8.533 0 0 0-8.531-8.535zM204.875 290.133H102.477a8.533 8.533 0 0 0-8.532 8.535c0 4.71 3.82 8.531 8.532 8.531h102.398a8.533 8.533 0 1 0 0-17.066zM260.719 397.773a8.54 8.54 0 0 0 6.734 3.29 8.538 8.538 0 0 0 6.73-3.29l39.825-51.199a8.533 8.533 0 1 0-13.465-10.48l-33.09 42.539-4.644-5.973a8.531 8.531 0 0 0-11.977-1.488c-3.719 2.894-4.383 8.258-1.488 11.976zM68.344 366.934h-8.535a8.532 8.532 0 0 0-8.532 8.53A8.533 8.533 0 0 0 59.81 384h8.535c4.71 0 8.531-3.82 8.531-8.535 0-4.711-3.82-8.531-8.531-8.531zM204.875 366.934H102.477a8.532 8.532 0 0 0-8.532 8.53 8.533 8.533 0 0 0 8.532 8.536h102.398a8.534 8.534 0 1 0 0-17.066zm0 0" fill="#ffffff" opacity="1" data-original="#000000" class=""></path></g></g></svg>