<svg width="16" height="19" viewBox="0 0 16 19" fill="none" xmlns="http://www.w3.org/2000/svg">
<path d="M2.77083 18.8125C2.23229 18.8125 1.77126 18.6208 1.38775 18.2373C1.00425 17.8538 0.8125 17.3927 0.8125 16.8542V8.18752C0.8125 7.64324 1.00425 7.17731 1.38775 6.78973C1.77126 6.40215 2.23229 6.20835 2.77083 6.20835H3.8125V4.66669C3.8125 3.48349 4.21782 2.47936 5.02846 1.65429C5.83908 0.829222 6.82867 0.416687 7.99721 0.416687C9.16574 0.416687 10.1562 0.829222 10.9687 1.65429C11.7812 2.47936 12.1875 3.48349 12.1875 4.66669V6.20835H13.2292C13.7734 6.20835 14.2394 6.40215 14.627 6.78973C15.0145 7.17731 15.2083 7.64324 15.2083 8.18752V16.8542C15.2083 17.3927 15.0145 17.8538 14.627 18.2373C14.2394 18.6208 13.7734 18.8125 13.2292 18.8125H2.77083ZM8.0035 14.125C8.44561 14.125 8.82292 13.972 9.13542 13.666C9.44792 13.3601 9.60417 12.9922 9.60417 12.5625C9.60417 12.1459 9.44675 11.7674 9.13192 11.4271C8.81708 11.0868 8.43861 10.9167 7.9965 10.9167C7.55439 10.9167 7.17708 11.0868 6.86458 11.4271C6.55208 11.7674 6.39583 12.1493 6.39583 12.5729C6.39583 12.9965 6.55325 13.3611 6.86808 13.6667C7.18292 13.9722 7.56139 14.125 8.0035 14.125ZM5.77083 6.20835H10.2292V4.6715C10.2292 4.02246 10.0163 3.48092 9.59069 3.0469C9.16504 2.61287 8.63726 2.39585 8.00735 2.39585C7.37745 2.39585 6.84722 2.61287 6.41667 3.0469C5.98611 3.48092 5.77083 4.02246 5.77083 4.6715V6.20835Z" fill="#020014" fill-opacity="0.7"/>
</svg>
