<svg width="20" height="14" viewBox="0 0 20 14" fill="none" xmlns="http://www.w3.org/2000/svg">
<path d="M14.9997 6.16665H13.333C13.0969 6.16665 12.899 6.08678 12.7393 5.92706C12.5795 5.76734 12.4997 5.56942 12.4997 5.33331C12.4997 5.0972 12.5795 4.89928 12.7393 4.73956C12.899 4.57984 13.0969 4.49998 13.333 4.49998H14.9997V2.83331C14.9997 2.5972 15.0795 2.39929 15.2393 2.23956C15.399 2.07984 15.5969 1.99998 15.833 1.99998C16.0691 1.99998 16.267 2.07984 16.4268 2.23956C16.5865 2.39929 16.6663 2.5972 16.6663 2.83331V4.49998H18.333C18.5691 4.49998 18.767 4.57984 18.9268 4.73956C19.0865 4.89928 19.1663 5.0972 19.1663 5.33331C19.1663 5.56942 19.0865 5.76734 18.9268 5.92706C18.767 6.08678 18.5691 6.16665 18.333 6.16665H16.6663V7.83331C16.6663 8.06942 16.5865 8.26734 16.4268 8.42706C16.267 8.58678 16.0691 8.66665 15.833 8.66665C15.5969 8.66665 15.399 8.58678 15.2393 8.42706C15.0795 8.26734 14.9997 8.06942 14.9997 7.83331V6.16665ZM7.49967 6.99998C6.58301 6.99998 5.79829 6.67359 5.14551 6.02081C4.49273 5.36803 4.16634 4.58331 4.16634 3.66665C4.16634 2.74998 4.49273 1.96526 5.14551 1.31248C5.79829 0.659702 6.58301 0.333313 7.49967 0.333313C8.41634 0.333313 9.20106 0.659702 9.85384 1.31248C10.5066 1.96526 10.833 2.74998 10.833 3.66665C10.833 4.58331 10.5066 5.36803 9.85384 6.02081C9.20106 6.67359 8.41634 6.99998 7.49967 6.99998ZM0.833008 12V11.3333C0.833008 10.8611 0.954536 10.4271 1.19759 10.0312C1.44065 9.6354 1.76356 9.33331 2.16634 9.12498C3.02745 8.69442 3.90245 8.37151 4.79134 8.15623C5.68023 7.94095 6.58301 7.83331 7.49967 7.83331C8.41634 7.83331 9.31912 7.94095 10.208 8.15623C11.0969 8.37151 11.9719 8.69442 12.833 9.12498C13.2358 9.33331 13.5587 9.6354 13.8018 10.0312C14.0448 10.4271 14.1663 10.8611 14.1663 11.3333V12C14.1663 12.4583 14.0031 12.8507 13.6768 13.1771C13.3504 13.5035 12.958 13.6666 12.4997 13.6666H2.49967C2.04134 13.6666 1.64898 13.5035 1.32259 13.1771C0.996202 12.8507 0.833008 12.4583 0.833008 12ZM2.49967 12H12.4997V11.3333C12.4997 11.1805 12.4615 11.0416 12.3851 10.9166C12.3087 10.7916 12.208 10.6944 12.083 10.625C11.333 10.25 10.5761 9.96873 9.81217 9.78123C9.04829 9.59373 8.27745 9.49998 7.49967 9.49998C6.7219 9.49998 5.95106 9.59373 5.18717 9.78123C4.42329 9.96873 3.66634 10.25 2.91634 10.625C2.79134 10.6944 2.69065 10.7916 2.61426 10.9166C2.53787 11.0416 2.49967 11.1805 2.49967 11.3333V12ZM7.49967 5.33331C7.95801 5.33331 8.35037 5.17012 8.67676 4.84373C9.00315 4.51734 9.16634 4.12498 9.16634 3.66665C9.16634 3.20831 9.00315 2.81595 8.67676 2.48956C8.35037 2.16317 7.95801 1.99998 7.49967 1.99998C7.04134 1.99998 6.64898 2.16317 6.32259 2.48956C5.9962 2.81595 5.83301 3.20831 5.83301 3.66665C5.83301 4.12498 5.9962 4.51734 6.32259 4.84373C6.64898 5.17012 7.04134 5.33331 7.49967 5.33331Z" fill="white"/>
</svg>
